<?xml version="1.0" encoding="utf-8"?>
<!-- Generator: Adobe Illustrator 22.1.0, SVG Export Plug-In . SVG Version: 6.00 Build 0)  -->
<svg version="1.1" id="レイヤー_1" xmlns="http://www.w3.org/2000/svg" xmlns:xlink="http://www.w3.org/1999/xlink" x="0px"
	 y="0px" viewBox="230 30 500 500" style="enable-background:new 230 30 500 500;" xml:space="preserve">
<style type="text/css">
	.st0{fill:#FFFFFF;}
</style>
<path class="st0" d="M480,530c137.8,0,250-112.2,250-250S617.9,30,480,30c-137.8,0-250,112.2-250,250S342.1,530,480,530z M480,74.2
	c113.5,0,205.8,92.3,205.8,205.8c0,91.4-59.9,168.9-142.5,195.7V340.9h57.8v-68.3h-57.8V237c0-9,3.3-15.5,14.6-15.5H601v-77h-48.1
	c-49.7,0-88.6,41.3-88.6,94v34.1H412v68.3h52.3V485c-106.1-8.1-190.1-96.8-190.1-205C274.2,166.5,366.5,74.2,480,74.2z"/>
</svg>
