<?xml version="1.0" encoding="utf-8"?>
<!-- Generator: Adobe Illustrator 22.1.0, SVG Export Plug-In . SVG Version: 6.00 Build 0)  -->
<svg version="1.1" id="レイヤー_1" xmlns="http://www.w3.org/2000/svg" xmlns:xlink="http://www.w3.org/1999/xlink" x="0px"
	 y="0px" viewBox="0 750 500 500" style="enable-background:new 0 750 500 500;" xml:space="preserve">
<style type="text/css">
	.st0{fill:#FFFFFF;}
</style>
<g>
	<path class="st0" d="M250,1250c137.8,0,249.9-112.1,249.9-250c0-137.9-112.1-250-249.9-250C112.2,750,0,862.2,0,1000
		C0,1137.9,112.2,1250,250,1250z M250,794.2c113.5,0,205.7,92.3,205.7,205.8s-92.3,205.8-205.7,205.8
		c-113.4,0-205.8-92.3-205.8-205.8S136.6,794.2,250,794.2z"/>
	<path class="st0" d="M123.1,1089.4c25.9,16.6,56.6,26.3,89.6,26.3c107.5,0,166.3-89.1,166.3-166.4c0-2.5-0.1-5-0.1-7.5
		c11.4-8.2,21.3-18.6,29.1-30.3c-10.5,4.7-21.8,7.8-33.6,9.2c12.1-7.2,21.3-18.7,25.7-32.3c-11.3,6.7-23.8,11.6-37.2,14.2
		c-10.6-11.3-25.8-18.4-42.6-18.4c-32.3,0-58.4,26.2-58.4,58.4c0,4.6,0.4,9,1.4,13.3c-48.6-2.4-91.6-25.7-120.4-61
		c-5.1,8.6-7.9,18.7-7.9,29.4c0,20.3,10.3,38.2,26,48.6c-9.6-0.2-18.6-2.9-26.4-7.3c0,0.3,0,0.5,0,0.7c0,28.3,20.1,51.9,46.9,57.3
		c-4.9,1.3-10.1,2-15.4,2c-3.8,0-7.4-0.3-11-1c7.5,23.2,29,40.1,54.6,40.5c-20,15.7-45.2,25.1-72.7,25.1
		C132.2,1090.3,127.7,1090,123.1,1089.4z"/>
</g>
</svg>
